<?xml version="1.0" encoding="utf-8"?>
<!-- Generator: Adobe Illustrator 23.0.2, SVG Export Plug-In . SVG Version: 6.00 Build 0)  -->
<svg version="1.1" id="Layer_1" xmlns="http://www.w3.org/2000/svg" xmlns:xlink="http://www.w3.org/1999/xlink" x="0px" y="0px"
	 width="188px" height="62.7px" viewBox="0 0 188 62.7" style="enable-background:new 0 0 188 62.7;" xml:space="preserve">
<style type="text/css">
	.st0{fill:#CC3300;}
</style>
<path class="st0" d="M93.3,23l-16.9-8.5h0c-1.2,0.2-2.6,0.4-3.8,0.6l11.5,5.1c-0.3,0.1-0.5,0.2-0.7,0.3l-12.3-5.1
	c-2.3,0.4-4.7,1-6.7,1.5l11,3.6c-0.5,0.2-0.6,0.3-1.2,0.6l-11.9-3.6c-3.5,1-7.2,2.2-12,4.2l0,0l22.4,4c-0.6,0.3-1,0.6-1.6,0.9
	L47.3,23c-5.7,2.5-12.3,6.3-17.5,9.8h0l23.5,0l0,0c-1.1,0.7-2,1.3-3.3,2.2l0,0l-24.5,0.8l0,0c-4.5,3.3-9.1,7.2-11.8,9.6
	C11.1,47.6,3.5,55.6,0,62.7l28.6-7.6l0,0c-1.3,1.9-2.3,4-3,5.8l31.1-10.1c-0.3-7.4,6.7-14,11.5-18l3.9,0C66.1,38,63.3,44,64.1,48.4
	l9.7-3.2C71.4,39.2,77.8,28.2,93.3,23z M86.9,21.9l1.9,0.8c-3.2,1.3-6,2.7-8.6,4.2l-2.6-0.4C79.9,25.1,83.4,23.4,86.9,21.9z"/>
<g>
	<path d="M124.5,23L117,12.1h-1.2V21l2.9,1.2V23h-9.1v-0.9l2.9-1.2V2.1l-2.9-1.2V0h9.3c2.7,0,3.8,0.3,5.1,1.3c1.2,1,1.9,2.5,1.9,4.3
		c0,3.1-2.1,5.4-5.5,5.9l6.9,9.4l2.7,1.2V23L124.5,23L124.5,23z M118.2,1.4h-2.4v9.3h2.3c2.5,0,4.3-2,4.3-4.8
		C122.4,3.2,120.9,1.4,118.2,1.4z"/>
	<path d="M147.9,20.8c-2,1.5-4.4,2.2-7.8,2.2h-9.8v-0.9l2.9-1.2V2.1l-2.9-1.2V0h10.3c4.4,0,6.7,0.8,8.8,3.1c1.8,2,2.7,4.7,2.7,7.9
		C152.2,15.2,150.7,18.6,147.9,20.8z M146.8,4.5c-1.5-2.1-3.5-2.9-6.5-2.9h-3.7v19.9h3.3c2.9,0,4.6-0.6,6.2-2.4
		c1.9-1.9,2.7-4.4,2.7-7.9C148.8,8.5,148.1,6.2,146.8,4.5z"/>
	<path d="M185.3,2.1l-7.8,21.3h-1.4l-5.9-18l-6.3,18h-1.4l-7-21.3l-2.7-1.2V0h8.7v0.9l-2.6,1.2l4,13c0.3,1.1,0.6,2.1,0.9,3.2
		L170.2,0h1.5l4.9,15.2c0.5,1.6,0.7,2.2,0.9,3.3l5.5-16.4l-2.7-1.2V0h7.7v0.9L185.3,2.1z"/>
</g>
</svg>
